HIERARCHY
ROOT mixamorig:Hips
{
	OFFSET 0.000000 99.791901 0.000000
	CHANNELS 6 Xposition Yposition Zposition Xrotation Yrotation Zrotation
	JOINT mixamorig:Spine
	{
		OFFSET 0.000038 9.923500 -1.227300
		CHANNELS 6 Xposition Yposition Zposition Xrotation Yrotation Zrotation
		JOINT mixamorig:Spine1
		{
			OFFSET -0.001154 11.645462 -1.422353
			CHANNELS 3 Xrotation Yrotation Zrotation
			JOINT mixamorig:Spine2
			{
				OFFSET -0.001065 13.360161 -1.626458
				CHANNELS 3 Xrotation Yrotation Zrotation
				JOINT mixamorig:Neck
				{
					OFFSET -0.001308 15.032516 0.792905
					CHANNELS 6 Xposition Yposition Zposition Xrotation Yrotation Zrotation
					JOINT mixamorig:Head
					{
						OFFSET -0.000902 10.321808 3.142400
						CHANNELS 6 Xposition Yposition Zposition Xrotation Yrotation Zrotation
						JOINT mixamorig:HeadTop_End
						{
							OFFSET -0.001416 18.474701 6.636400
							CHANNELS 6 Xposition Yposition Zposition Xrotation Yrotation Zrotation
							End Site
							{
								OFFSET -0.001707 19.630493 0.000000
							}
						}
					}
				}
				JOINT mixamorig:LeftShoulder
				{
					OFFSET 6.105007 9.110962 0.705601
					CHANNELS 6 Xposition Yposition Zposition Xrotation Yrotation Zrotation
					JOINT mixamorig:LeftArm
					{
						OFFSET 12.655048 -0.266434 -2.600898
						CHANNELS 3 Xrotation Yrotation Zrotation
						JOINT mixamorig:LeftForeArm
						{
							OFFSET 27.404696 0.000000 0.000000
							CHANNELS 3 Xrotation Yrotation Zrotation
							JOINT mixamorig:LeftHand
							{
								OFFSET 27.614513 0.000000 0.000000
								CHANNELS 3 Xrotation Yrotation Zrotation
								JOINT mixamorig:LeftHandThumb1
								{
									OFFSET 3.788795 -2.167099 3.003002
									CHANNELS 6 Xposition Yposition Zposition Xrotation Yrotation Zrotation
									JOINT mixamorig:LeftHandThumb2
									{
										OFFSET 3.675461 -2.122025 2.122029
										CHANNELS 6 Xposition Yposition Zposition Xrotation Yrotation Zrotation
										JOINT mixamorig:LeftHandThumb3
										{
											OFFSET 3.394363 -1.959732 1.959735
											CHANNELS 6 Xposition Yposition Zposition Xrotation Yrotation Zrotation
											JOINT mixamorig:LeftHandThumb4
											{
												OFFSET 2.679405 -1.546951 1.546957
												CHANNELS 6 Xposition Yposition Zposition Xrotation Yrotation Zrotation
												End Site
												{
													OFFSET 2.400513 -1.530563 1.964770
												}
											}
										}
									}
								}
								JOINT mixamorig:LeftHandIndex1
								{
									OFFSET 12.266594 -0.231796 2.822001
									CHANNELS 6 Xposition Yposition Zposition Xrotation Yrotation Zrotation
									JOINT mixamorig:LeftHandIndex2
									{
										OFFSET 3.891998 0.000000 0.000000
										CHANNELS 3 Xrotation Yrotation Zrotation
										JOINT mixamorig:LeftHandIndex3
										{
											OFFSET 3.415207 0.000000 0.000000
											CHANNELS 3 Xrotation Yrotation Zrotation
											JOINT mixamorig:LeftHandIndex4
											{
												OFFSET 3.077995 0.000000 0.000000
												CHANNELS 3 Xrotation Yrotation Zrotation
												End Site
												{
													OFFSET 3.078003 0.000000 0.000140
												}
											}
										}
									}
								}
								JOINT mixamorig:LeftHandMiddle1
								{
									OFFSET 12.775497 0.000000 0.000000
									CHANNELS 6 Xposition Yposition Zposition Xrotation Yrotation Zrotation
									JOINT mixamorig:LeftHandMiddle2
									{
										OFFSET 3.613998 0.000000 0.000000
										CHANNELS 3 Xrotation Yrotation Zrotation
										JOINT mixamorig:LeftHandMiddle3
										{
											OFFSET 3.459793 0.000000 0.000000
											CHANNELS 3 Xrotation Yrotation Zrotation
											JOINT mixamorig:LeftHandMiddle4
											{
												OFFSET 3.680214 0.000000 0.000000
												CHANNELS 3 Xrotation Yrotation Zrotation
												End Site
												{
													OFFSET 3.680199 0.000031 -0.004817
												}
											}
										}
									}
								}
								JOINT mixamorig:LeftHandRing1
								{
									OFFSET 12.146996 0.009995 -2.216599
									CHANNELS 6 Xposition Yposition Zposition Xrotation Yrotation Zrotation
									JOINT mixamorig:LeftHandRing2
									{
										OFFSET 3.601196 0.000000 0.000000
										CHANNELS 3 Xrotation Yrotation Zrotation
										JOINT mixamorig:LeftHandRing3
										{
											OFFSET 3.307304 0.000000 0.000000
											CHANNELS 3 Xrotation Yrotation Zrotation
											JOINT mixamorig:LeftHandRing4
											{
												OFFSET 3.660095 0.000000 0.000000
												CHANNELS 3 Xrotation Yrotation Zrotation
												End Site
												{
													OFFSET 3.660095 -0.000107 0.005639
												}
											}
										}
									}
								}
								JOINT mixamorig:LeftHandPinky1
								{
									OFFSET 10.908195 -0.226105 -4.725800
									CHANNELS 6 Xposition Yposition Zposition Xrotation Yrotation Zrotation
									JOINT mixamorig:LeftHandPinky2
									{
										OFFSET 4.136703 0.000000 0.000000
										CHANNELS 3 Xrotation Yrotation Zrotation
										JOINT mixamorig:LeftHandPinky3
										{
											OFFSET 2.594803 0.000000 0.000000
											CHANNELS 3 Xrotation Yrotation Zrotation
											JOINT mixamorig:LeftHandPinky4
											{
												OFFSET 2.923904 0.000000 0.000000
												CHANNELS 3 Xrotation Yrotation Zrotation
												End Site
												{
													OFFSET 2.923897 0.000015 -0.003363
												}
											}
										}
									}
								}
							}
						}
					}
				}
				JOINT mixamorig:RightShoulder
				{
					OFFSET -6.106493 9.110001 0.705582
					CHANNELS 6 Xposition Yposition Zposition Xrotation Yrotation Zrotation
					JOINT mixamorig:RightArm
					{
						OFFSET -12.655064 -0.265533 -2.600914
						CHANNELS 3 Xrotation Yrotation Zrotation
						JOINT mixamorig:RightForeArm
						{
							OFFSET -27.404697 0.000000 -0.000000
							CHANNELS 3 Xrotation Yrotation Zrotation
							JOINT mixamorig:RightHand
							{
								OFFSET -27.614510 0.000000 -0.000000
								CHANNELS 3 Xrotation Yrotation Zrotation
								JOINT mixamorig:RightHandThumb1
								{
									OFFSET -3.788803 -2.167099 3.003001
									CHANNELS 6 Xposition Yposition Zposition Xrotation Yrotation Zrotation
									JOINT mixamorig:RightHandThumb2
									{
										OFFSET -3.675461 -2.122025 2.122028
										CHANNELS 6 Xposition Yposition Zposition Xrotation Yrotation Zrotation
										JOINT mixamorig:RightHandThumb3
										{
											OFFSET -3.394363 -1.959732 1.959735
											CHANNELS 6 Xposition Yposition Zposition Xrotation Yrotation Zrotation
											JOINT mixamorig:RightHandThumb4
											{
												OFFSET -2.679405 -1.546951 1.546957
												CHANNELS 6 Xposition Yposition Zposition Xrotation Yrotation Zrotation
												End Site
												{
													OFFSET -2.398972 -1.531448 1.965965
												}
											}
										}
									}
								}
								JOINT mixamorig:RightHandIndex1
								{
									OFFSET -12.266602 -0.231796 2.822000
									CHANNELS 6 Xposition Yposition Zposition Xrotation Yrotation Zrotation
									JOINT mixamorig:RightHandIndex2
									{
										OFFSET -3.891998 0.000000 0.000000
										CHANNELS 3 Xrotation Yrotation Zrotation
										JOINT mixamorig:RightHandIndex3
										{
											OFFSET -3.415207 0.000000 0.000000
											CHANNELS 3 Xrotation Yrotation Zrotation
											JOINT mixamorig:RightHandIndex4
											{
												OFFSET -3.077995 0.000000 0.000000
												CHANNELS 3 Xrotation Yrotation Zrotation
												End Site
												{
													OFFSET -3.077995 0.000504 -0.008460
												}
											}
										}
									}
								}
								JOINT mixamorig:RightHandMiddle1
								{
									OFFSET -12.775505 0.000000 -0.000000
									CHANNELS 6 Xposition Yposition Zposition Xrotation Yrotation Zrotation
									JOINT mixamorig:RightHandMiddle2
									{
										OFFSET -3.613998 0.000000 0.000000
										CHANNELS 3 Xrotation Yrotation Zrotation
										JOINT mixamorig:RightHandMiddle3
										{
											OFFSET -3.459793 0.000000 0.000000
											CHANNELS 3 Xrotation Yrotation Zrotation
											JOINT mixamorig:RightHandMiddle4
											{
												OFFSET -3.680214 0.000000 0.000000
												CHANNELS 3 Xrotation Yrotation Zrotation
												End Site
												{
													OFFSET -3.680176 0.000290 0.012574
												}
											}
										}
									}
								}
								JOINT mixamorig:RightHandRing1
								{
									OFFSET -12.147003 0.009995 -2.216600
									CHANNELS 6 Xposition Yposition Zposition Xrotation Yrotation Zrotation
									JOINT mixamorig:RightHandRing2
									{
										OFFSET -3.601196 0.000000 0.000000
										CHANNELS 3 Xrotation Yrotation Zrotation
										JOINT mixamorig:RightHandRing3
										{
											OFFSET -3.307304 0.000000 0.000000
											CHANNELS 3 Xrotation Yrotation Zrotation
											JOINT mixamorig:RightHandRing4
											{
												OFFSET -3.660103 0.000000 0.000000
												CHANNELS 3 Xrotation Yrotation Zrotation
												End Site
												{
													OFFSET -3.660103 0.000427 0.002204
												}
											}
										}
									}
								}
								JOINT mixamorig:RightHandPinky1
								{
									OFFSET -10.908203 -0.226105 -4.725801
									CHANNELS 6 Xposition Yposition Zposition Xrotation Yrotation Zrotation
									JOINT mixamorig:RightHandPinky2
									{
										OFFSET -4.136703 0.000000 0.000000
										CHANNELS 3 Xrotation Yrotation Zrotation
										JOINT mixamorig:RightHandPinky3
										{
											OFFSET -2.594803 0.000000 0.000000
											CHANNELS 3 Xrotation Yrotation Zrotation
											JOINT mixamorig:RightHandPinky4
											{
												OFFSET -2.923904 0.000000 0.000000
												CHANNELS 3 Xrotation Yrotation Zrotation
												End Site
												{
													OFFSET -2.923866 0.000595 -0.012896
												}
											}
										}
									}
								}
							}
						}
					}
				}
			}
		}
	}
	JOINT mixamorig:LeftUpLeg
	{
		OFFSET 9.124481 -6.656403 -0.055368
		CHANNELS 6 Xposition Yposition Zposition Xrotation Yrotation Zrotation
		JOINT mixamorig:LeftLeg
		{
			OFFSET 0.244688 -40.595383 -0.515629
			CHANNELS 3 Xrotation Yrotation Zrotation
			JOINT mixamorig:LeftFoot
			{
				OFFSET -0.244684 -42.047905 -2.059130
				CHANNELS 3 Xrotation Yrotation Zrotation
				JOINT mixamorig:LeftToeBase
				{
					OFFSET 0.373535 -7.208565 13.966596
					CHANNELS 3 Xrotation Yrotation Zrotation
					JOINT mixamorig:LeftToe_End
					{
						OFFSET -0.142057 -0.175231 9.997458
						CHANNELS 3 Xrotation Yrotation Zrotation
						End Site
						{
							OFFSET -0.142057 -0.175231 9.997458
						}
					}
				}
			}
		}
	}
	JOINT mixamorig:RightUpLeg
	{
		OFFSET -9.124419 -6.656395 -0.055432
		CHANNELS 6 Xposition Yposition Zposition Xrotation Yrotation Zrotation
		JOINT mixamorig:RightLeg
		{
			OFFSET -0.244683 -40.595413 -0.514284
			CHANNELS 3 Xrotation Yrotation Zrotation
			JOINT mixamorig:RightFoot
			{
				OFFSET 0.244687 -42.047836 -2.060526
				CHANNELS 3 Xrotation Yrotation Zrotation
				JOINT mixamorig:RightToeBase
				{
					OFFSET -0.373540 -7.208565 13.966594
					CHANNELS 3 Xrotation Yrotation Zrotation
					JOINT mixamorig:RightToe_End
					{
						OFFSET 0.141792 -0.175015 9.997463
						CHANNELS 3 Xrotation Yrotation Zrotation
						End Site
						{
							OFFSET 0.141792 -0.175015 9.997463
						}
					}
				}
			}
		}
	}
}
MOTION
Frames: 4
Frame Time: 0.033333
26.238125 76.270058 315.527161 -7.325606 8.806978 1.337053 0.000046 9.923491 -1.227318 24.736585 4.130020 1.645001 2.895330 0.945953 -0.087997 2.902769 0.929991 -0.112159 -0.001307 15.032532 0.792893 -4.924032 -1.660662 1.176775 -0.000901 10.321806 3.142349 -43.382414 -11.523831 -7.667698 -0.001415 18.474701 6.636446 -0.000000 0.000000 -0.000000 6.105006 9.111001 0.705612 0.497373 -1.663777 -3.818614 25.073884 3.217152 -77.730217 -217.010492 -123.293999 -212.515025 -5.703906 0.787186 7.688692 3.788789 -2.167053 3.002984 22.595575 -7.371161 7.455853 3.675471 -2.122012 2.122073 21.389571 18.667781 -3.094762 3.394353 -1.959749 1.959675 -19.364556 -18.020979 14.745463 2.679407 -1.546930 1.546986 -0.000000 -0.000001 -0.000001 12.266592 -0.231763 2.821972 4.838508 8.082956 -40.678875 3.988774 5.547764 -71.411547 3.098507 5.165166 -61.896554 -0.000002 -0.000000 -0.000002 12.775529 0.000033 -0.000028 6.861253 7.767381 -64.318607 4.927903 5.784124 -80.883694 3.887682 5.517073 -70.347192 0.000002 -0.000001 -0.000001 12.146996 0.010034 -2.216656 -5.937943 7.215640 -89.883958 5.830867 5.852761 -89.818395 4.348675 5.655560 -75.133768 0.000003 0.000001 -0.000002 10.908183 -0.226073 -4.725850 7.275325 15.942053 -89.646274 6.276370 5.835628 -94.176390 4.680464 5.733178 -78.440064 -0.000000 -0.000002 0.000001 -6.106496 9.110003 0.705587 0.468308 -2.020021 7.477000 20.760037 -27.868432 78.902284 -606.323706 133.061456 576.506597 -6.700673 -6.752128 -54.371762 -3.788783 -2.167097 3.002994 17.214544 -15.218667 -25.317025 -3.675438 -2.122028 2.122030 19.800795 -8.435523 9.688222 -3.394381 -1.959719 1.959736 -24.070487 -21.666588 -36.685848 -2.679437 -1.546969 1.546942 0.000005 0.000002 -0.000003 -12.266580 -0.231791 2.822002 6.862267 -9.697677 58.624244 3.743661 -4.566898 78.676799 3.140812 -4.403910 70.979886 -0.000000 0.000001 -0.000004 -12.775467 -0.000013 0.000012 -2.760191 -9.540143 55.664034 3.819370 -4.581351 79.626284 2.712729 -4.232653 65.299156 0.000004 -0.000002 -0.000004 -12.146983 0.009986 -2.216607 -6.695615 -6.135667 83.125137 4.317722 -4.644816 85.816580 2.860516 -4.297353 67.286147 -0.000002 0.000001 -0.000003 -10.908185 -0.226095 -4.725794 -7.402438 -8.427696 101.020540 4.107149 -4.624649 83.211061 2.245447 -3.985271 58.784529 -0.000001 0.000003 0.000000 9.124491 -6.656399 -0.055353 -36.438359 -3.395611 37.553681 63.527385 -15.030557 -3.411671 -16.442181 4.537329 -21.717722 -0.893316 -6.752572 1.480659 -0.000000 -0.000002 -0.000000 -9.124424 -6.656393 -0.055402 -25.688843 0.008233 -34.849049 74.217218 0.479509 1.919335 -33.076690 -4.800652 13.614544 -2.461123 -0.180164 1.880520 -0.000000 0.000003 0.000001 
27.382973 76.198204 315.327087 -8.135593 8.768271 5.732506 0.000035 9.923510 -1.227290 26.151719 0.793308 0.256728 3.092141 0.332449 -1.156263 3.091689 0.381415 -1.186356 -0.001312 15.032502 0.792961 -5.635794 -1.420647 0.390579 -0.000902 10.321784 3.142379 -43.123338 -10.870265 -6.134200 -0.001415 18.474701 6.636353 0.000001 -0.000000 0.000000 6.105012 9.110935 0.705621 0.516561 -0.968015 -6.331071 17.354783 10.669270 -74.575420 -214.110885 -133.968724 -206.348525 -5.145056 -4.039423 15.705504 3.788797 -2.167111 3.003020 36.889746 -8.479017 9.247226 3.675474 -2.122017 2.121986 16.881280 22.237269 -1.030109 3.394353 -1.959737 1.959737 -18.687244 -16.740621 9.690018 2.679410 -1.546936 1.546956 -0.000001 -0.000008 0.000001 12.266604 -0.231800 2.822031 4.507868 8.158547 -32.821091 3.451496 5.337968 -65.751786 2.603778 4.869854 -56.244449 0.000004 0.000001 0.000002 12.775514 -0.000005 0.000024 5.183562 7.694797 -54.920892 4.782178 5.759049 -79.434629 3.749121 5.465936 -68.899499 0.000000 0.000001 0.000001 12.147022 0.009968 -2.216592 -6.457874 5.696800 -82.765985 5.771634 5.852273 -89.237350 4.291527 5.640101 -74.553140 0.000005 0.000001 0.000002 10.908207 -0.226112 -4.725800 6.162996 16.117177 -78.429355 6.183188 5.841656 -93.260373 4.589162 5.713822 -77.524409 -0.000004 -0.000001 0.000002 -6.106490 9.109985 0.705610 0.289350 -2.941110 4.774798 23.370086 -19.297895 81.457246 -597.967325 133.102669 575.314101 -8.516253 -15.572071 -43.848940 -3.788811 -2.167134 3.002954 30.801004 -14.075977 -26.728101 -3.675453 -2.122008 2.122046 15.629527 -11.893710 7.495230 -3.394410 -1.959714 1.959727 -19.848282 -22.669367 -31.381997 -2.679418 -1.546935 1.546959 0.000001 0.000001 -0.000001 -12.266624 -0.231813 2.821961 6.266096 -10.200608 50.740953 3.298569 -4.455025 73.022263 2.714875 -4.233633 65.328239 -0.000001 -0.000002 -0.000001 -12.775525 -0.000027 -0.000053 -4.610315 -8.079353 46.356870 3.704136 -4.558830 78.179882 2.606708 -4.182407 63.854141 -0.000001 0.000001 -0.000002 -12.147032 0.009956 -2.216636 -7.095154 -4.680145 76.007021 4.270774 -4.641150 85.236649 2.817210 -4.279032 66.706797 -0.000002 -0.000001 -0.000001 -10.908204 -0.226137 -4.725834 -6.788179 -6.258910 90.367993 4.033514 -4.615332 82.296833 2.182323 -3.946399 57.871872 0.000002 -0.000001 -0.000001 9.124489 -6.656417 -0.055374 -36.220575 0.466089 33.801520 63.848998 -15.880687 -3.712246 -17.406612 4.539286 -20.639105 -0.057698 -7.490283 2.753830 -0.000000 -0.000001 0.000000 -9.124419 -6.656388 -0.055432 -24.221642 3.591839 -38.819623 74.673215 -1.212204 1.665642 -32.649988 -4.938931 14.194698 -2.525128 -0.584637 1.702398 0.000000 -0.000002 -0.000000 
28.345850 76.362617 315.261902 -8.492956 8.756027 9.691662 0.000038 9.923492 -1.227283 26.765478 -2.344388 -0.870624 3.126399 -0.204218 -2.315694 3.126313 -0.077344 -2.356764 -0.001306 15.032515 0.792875 -6.255486 -1.277787 -0.146523 -0.000906 10.321827 3.142420 -42.378797 -10.521264 -4.565848 -0.001413 18.474686 6.636375 0.000003 -0.000000 -0.000000 6.105011 9.110960 0.705586 0.583289 0.158296 -9.584433 4.954351 15.839706 -66.812453 -221.309426 -152.601070 -202.542771 -2.152188 -12.713823 33.060523 3.788830 -2.167085 3.002979 48.424211 -8.391374 8.263655 3.675467 -2.122022 2.122016 18.561565 20.926918 -1.798302 3.394354 -1.959769 1.959740 -18.590172 -16.580330 9.072124 2.679429 -1.546935 1.546919 -0.000001 -0.000001 0.000003 12.266607 -0.231813 2.821994 3.811147 7.966249 -25.310050 2.784622 4.985549 -58.349466 2.004928 4.412636 -48.853679 -0.000000 0.000002 -0.000000 12.775515 -0.000010 -0.000032 3.683850 7.283141 -47.593014 4.654569 5.733972 -78.160034 3.628355 5.418057 -67.626249 -0.000004 0.000001 -0.000002 12.147035 0.009973 -2.216620 -6.757158 4.222166 -76.098047 5.736901 5.851683 -88.896633 4.258086 5.630787 -74.212751 0.000001 0.000003 0.000001 10.908234 -0.226118 -4.725819 3.904470 15.968361 -69.050214 6.149303 5.843475 -92.927428 4.556035 5.706430 -77.191622 0.000002 -0.000002 -0.000000 -6.106491 9.110006 0.705538 0.199187 -2.938263 3.315672 26.539846 -12.173702 81.433053 -592.219366 132.784833 579.427350 -6.862964 -25.299736 -24.964080 -3.788792 -2.167127 3.002978 42.621316 -14.395942 -24.979556 -3.675439 -2.122017 2.122019 17.186330 -10.625059 8.303641 -3.394377 -1.959726 1.959745 -19.261958 -22.342283 -30.596423 -2.679407 -1.546940 1.546934 0.000003 0.000003 -0.000006 -12.266621 -0.231783 2.821954 5.261440 -10.376216 43.181819 2.736680 -4.243563 65.623296 2.186599 -3.949104 57.934218 -0.000001 -0.000002 0.000003 -12.775495 -0.000030 -0.000016 -6.076832 -6.577777 39.178354 3.603243 -4.536605 76.907636 2.514530 -4.136000 62.583227 -0.000000 0.000001 0.000003 -12.147017 0.009972 -2.216611 -7.289883 -3.277491 69.331905 4.243265 -4.638790 84.896608 2.791886 -4.268064 66.367084 -0.000003 0.000001 0.000000 -10.908200 -0.226133 -4.725821 -7.287232 -4.413586 81.507625 4.006775 -4.611631 81.964551 2.159537 -3.932043 57.540171 0.000002 -0.000001 -0.000001 9.124493 -6.656418 -0.055362 -35.675068 3.944838 30.520212 63.317787 -16.873788 -4.369757 -17.582396 4.402396 -19.588646 0.432523 -8.389592 3.598047 -0.000000 0.000001 0.000000 -9.124413 -6.656415 -0.055445 -22.559956 6.338223 -42.472807 74.271935 -2.274194 1.336077 -32.076112 -5.175247 15.156893 -2.041453 -1.266193 0.863085 -0.000000 0.000000 -0.000002 
28.838499 76.471298 315.361847 -8.236847 7.921750 11.923797 0.000034 9.923507 -1.227267 26.410303 -3.658377 -1.821195 3.038261 -0.326120 -3.195816 3.038132 -0.137843 -3.252884 -0.001315 15.032519 0.792877 -6.482267 -1.266765 -0.449983 -0.000906 10.321813 3.142391 -41.517547 -10.525832 -3.390603 -0.001412 18.474701 6.636472 -0.000001 0.000000 -0.000000 6.105007 9.110937 0.705557 0.691256 1.072559 -12.264967 -6.750511 16.403819 -57.360666 -239.225791 -169.909630 -197.327730 3.709715 -22.465308 46.555604 3.788788 -2.167115 3.003011 53.725489 -7.256670 7.078123 3.675465 -2.122020 2.122036 19.799042 19.880949 -2.278988 3.394377 -1.959733 1.959738 -18.898968 -17.113736 11.185184 2.679426 -1.546932 1.546937 -0.000000 -0.000000 -0.000003 12.266604 -0.231789 2.821995 3.622967 7.889280 -23.373553 2.678425 4.918747 -57.119270 1.911323 4.329293 -47.625540 0.000006 -0.000001 -0.000000 12.775503 0.000003 -0.000009 3.489960 7.198993 -46.474581 4.653554 5.733771 -78.150027 3.627408 5.417696 -67.616264 -0.000001 0.000003 0.000001 12.147030 0.009982 -2.216604 -6.807659 3.871820 -74.536618 5.749371 5.851921 -89.019078 4.270099 5.634162 -74.335100 -0.000002 -0.000004 0.000000 10.908215 -0.226094 -4.725812 3.231314 15.815885 -67.434745 6.178782 5.841904 -93.217028 4.584844 5.712874 -77.481092 0.000001 -0.000003 0.000000 -6.106493 9.109986 0.705528 0.187354 -2.268581 2.633642 30.827659 -8.280881 81.012184 -592.321600 130.273223 589.345659 -3.381573 -30.171824 -10.118719 -3.788796 -2.167088 3.002973 48.185093 -15.616773 -23.086798 -3.675450 -2.122035 2.122010 18.334263 -9.596176 8.831038 -3.394384 -1.959707 1.959705 -20.909543 -21.286411 -32.619365 -2.679391 -1.546955 1.546976 0.000004 0.000002 -0.000003 -12.266584 -0.231781 2.822003 4.984591 -10.388789 41.230072 2.646099 -4.201468 64.393282 2.102546 -3.895294 56.705091 -0.000000 -0.000001 -0.000001 -12.775497 0.000011 -0.000028 -6.253331 -6.328539 38.086986 3.602447 -4.536418 76.897671 2.513805 -4.135632 62.573262 0.000001 0.000001 0.000001 -12.146992 0.010001 -2.216602 -7.317846 -2.946716 67.767942 4.253159 -4.639658 85.018841 2.800976 -4.272017 66.489187 -0.000004 -0.000003 -0.000004 -10.908204 -0.226099 -4.725842 -7.630511 -3.998141 79.999294 4.030031 -4.614858 82.253571 2.179369 -3.944545 57.828678 -0.000002 -0.000001 -0.000001 9.124479 -6.656403 -0.055324 -34.842953 6.187125 29.775728 62.161306 -18.028115 -6.204012 -17.667507 4.306023 -18.755549 0.486093 -9.455580 4.792340 -0.000000 0.000002 0.000000 -9.124427 -6.656399 -0.055371 -21.453196 8.873527 -44.092187 73.902333 -2.892564 1.166888 -31.868406 -5.465660 16.146378 -1.578981 -1.856023 0.783265 -0.000000 0.000002 0.000002 
